<?xml version="1.0" encoding="utf-8" ?>
<svg baseProfile="full" height="100" version="1.1" viewBox="0 0 100 100" width="100" xmlns="http://www.w3.org/2000/svg" xmlns:ev="http://www.w3.org/2001/xml-events" xmlns:xlink="http://www.w3.org/1999/xlink"><defs /><circle cx="50" cy="50" fill="white" r="48" stroke="black" stroke-width="2" /><path d="M 69.73,54.39 L69.63,54.49 L68.65,54.49 L68.55,54.59 L68.16,54.59 L68.07,54.69 L67.77,54.69 L67.68,54.79 L67.48,54.79 L67.38,54.88 L67.09,54.88 L66.99,54.98 L66.89,54.98 L66.8,55.08 L66.6,55.08 L66.5,55.18 L66.41,55.18 L66.31,55.27 L66.11,55.27 L66.02,55.37 L65.92,55.37 L65.82,55.47 L65.72,55.47 L65.62,55.57 L65.53,55.57 L65.33,55.76 L65.23,55.76 L65.14,55.86 L65.04,55.86 L64.84,56.05 L64.75,56.05 L64.45,56.35 L64.36,56.35 L64.16,56.54 L64.06,56.54 L63.18,57.42 L63.09,57.42 L62.6,57.91 L62.6,58.01 L62.11,58.5 L62.11,58.59 L61.82,58.89 L61.82,58.98 L61.62,59.18 L61.62,59.28 L61.43,59.47 L61.43,59.57 L61.23,59.77 L61.23,59.86 L61.04,60.06 L61.04,60.16 L60.74,60.45 L60.74,60.55 L59.86,61.43 L59.77,61.43 L59.47,61.72 L59.38,61.72 L59.28,61.82 L59.18,61.82 L59.08,61.91 L58.98,61.91 L58.89,62.01 L58.69,62.01 L58.59,62.11 L58.3,62.11 L58.2,62.21 L46.29,62.21 L46.19,62.11 L37.7,62.11 L37.6,62.01 L37.11,62.01 L37.01,61.91 L36.82,61.91 L36.72,61.82 L36.62,61.82 L36.52,61.72 L36.43,61.72 L36.33,61.62 L36.23,61.62 L35.94,61.33 L35.84,61.33 L33.98,59.47 L33.89,59.47 L33.59,59.18 L33.5,59.18 L33.3,58.98 L33.2,58.98 L33.01,58.79 L32.91,58.79 L32.71,58.59 L32.62,58.59 L32.52,58.5 L32.42,58.5 L32.32,58.4 L32.23,58.4 L32.13,58.3 L31.93,58.3 L31.84,58.2 L31.74,58.2 L31.64,58.11 L31.45,58.11 L31.35,58.01 L31.15,58.01 L31.05,57.91 L30.76,57.91 L30.66,57.81 L30.27,57.81 L30.18,57.71 L29.59,57.71 L29.49,57.62 L27.73,57.62 L27.64,57.71 L27.15,57.71 L27.05,57.81 L26.76,57.81 L26.66,57.91 L26.37,57.91 L26.27,58.01 L25.98,58.01 L25.88,58.11 L25.68,58.11 L25.59,58.2 L25.49,58.2 L25.39,58.3 L25.29,58.3 L25.2,58.4 L25.1,58.4 L25.0,58.5 L24.9,58.5 L24.8,58.59 L24.71,58.59 L24.61,58.69 L24.51,58.69 L24.41,58.79 L24.32,58.79 L24.12,58.98 L24.02,58.98 L23.83,59.18 L23.73,59.18 L23.54,59.38 L23.44,59.38 L22.07,60.74 L22.07,60.84 L21.78,61.13 L21.78,61.23 L21.68,61.33 L21.68,61.43 L21.58,61.52 L21.58,61.62 L21.48,61.72 L21.48,62.3 L21.78,62.6 L21.88,62.6 L21.97,62.7 L26.27,62.7 L26.37,62.79 L27.05,62.79 L27.15,62.89 L27.34,62.89 L27.44,62.99 L27.54,62.99 L27.64,63.09 L27.73,63.09 L28.52,63.87 L28.52,63.96 L28.71,64.16 L28.71,64.26 L28.91,64.45 L28.91,64.55 L29.0,64.65 L29.0,64.84 L29.1,64.94 L29.1,65.04 L29.2,65.14 L29.2,65.33 L29.3,65.43 L29.3,65.72 L29.39,65.82 L29.39,66.41 L29.3,66.5 L29.3,66.8 L29.2,66.89 L29.2,67.09 L29.1,67.19 L29.1,67.38 L29.0,67.48 L29.0,67.58 L28.91,67.68 L28.91,67.77 L28.71,67.97 L28.71,68.07 L28.52,68.26 L28.52,68.36 L27.83,69.04 L27.73,69.04 L27.64,69.14 L27.54,69.14 L27.44,69.24 L27.25,69.24 L27.15,69.34 L26.66,69.34 L26.56,69.43 L24.8,69.43 L24.71,69.53 L22.17,69.53 L22.07,69.63 L21.88,69.63 L21.58,69.92 L21.58,70.02 L21.48,70.12 L21.48,70.51 L21.58,70.61 L21.58,70.7 L21.68,70.8 L21.68,70.9 L21.78,71.0 L21.78,71.09 L22.07,71.39 L22.07,71.48 L22.66,72.07 L22.66,72.17 L22.75,72.27 L22.85,72.27 L23.54,72.95 L23.63,72.95 L23.93,73.24 L24.02,73.24 L24.22,73.44 L24.32,73.44 L24.41,73.54 L24.51,73.54 L24.61,73.63 L24.71,73.63 L24.8,73.73 L24.9,73.73 L25.0,73.83 L25.1,73.83 L25.2,73.93 L25.29,73.93 L25.39,74.02 L25.49,74.02 L25.59,74.12 L25.78,74.12 L25.88,74.22 L26.07,74.22 L26.17,74.32 L26.37,74.32 L26.46,74.41 L26.76,74.41 L26.86,74.51 L27.25,74.51 L27.34,74.61 L28.52,74.61 L28.61,74.71 L29.0,74.71 L29.1,74.61 L30.08,74.61 L30.18,74.51 L30.57,74.51 L30.66,74.41 L30.96,74.41 L31.05,74.32 L31.35,74.32 L31.45,74.22 L31.64,74.22 L31.74,74.12 L31.84,74.12 L31.93,74.02 L32.13,74.02 L32.23,73.93 L32.32,73.93 L32.42,73.83 L32.52,73.83 L32.62,73.73 L32.71,73.73 L32.81,73.63 L32.91,73.63 L33.01,73.54 L33.11,73.54 L33.3,73.34 L33.4,73.34 L33.59,73.14 L33.69,73.14 L33.98,72.85 L34.08,72.85 L34.86,72.07 L34.86,71.97 L35.55,71.29 L35.55,71.19 L35.94,70.8 L36.04,70.8 L36.43,70.41 L36.52,70.41 L36.62,70.31 L36.72,70.31 L36.82,70.21 L36.91,70.21 L37.01,70.12 L37.21,70.12 L37.3,70.02 L58.2,70.02 L58.3,70.12 L58.59,70.12 L58.69,70.21 L58.89,70.21 L58.98,70.31 L59.08,70.31 L59.18,70.41 L59.28,70.41 L59.38,70.51 L59.47,70.51 L59.57,70.61 L59.67,70.61 L59.96,70.9 L60.06,70.9 L60.55,71.39 L60.55,71.48 L60.84,71.78 L60.84,71.88 L61.04,72.07 L61.04,72.17 L61.23,72.36 L61.23,72.46 L61.33,72.56 L61.33,72.66 L61.52,72.85 L61.52,72.95 L61.72,73.14 L61.72,73.24 L62.11,73.63 L62.11,73.73 L62.89,74.51 L62.89,74.61 L62.99,74.61 L63.77,75.39 L63.87,75.39 L64.16,75.68 L64.26,75.68 L64.45,75.88 L64.55,75.88 L64.75,76.07 L64.84,76.07 L64.94,76.17 L65.04,76.17 L65.14,76.27 L65.23,76.27 L65.33,76.37 L65.43,76.37 L65.62,76.56 L65.82,76.56 L65.92,76.66 L66.02,76.66 L66.11,76.76 L66.21,76.76 L66.31,76.86 L66.41,76.86 L66.5,76.95 L66.7,76.95 L66.8,77.05 L66.99,77.05 L67.09,77.15 L67.29,77.15 L67.38,77.25 L67.58,77.25 L67.68,77.34 L68.07,77.34 L68.16,77.44 L68.55,77.44 L68.65,77.54 L71.19,77.54 L71.29,77.44 L71.78,77.44 L71.88,77.34 L72.17,77.34 L72.27,77.25 L72.56,77.25 L72.66,77.15 L72.85,77.15 L72.95,77.05 L73.14,77.05 L73.24,76.95 L73.44,76.95 L73.54,76.86 L73.63,76.86 L73.73,76.76 L73.83,76.76 L73.93,76.66 L74.12,76.66 L74.22,76.56 L74.32,76.56 L74.41,76.46 L74.51,76.46 L74.61,76.37 L74.71,76.37 L74.9,76.17 L75.0,76.17 L75.1,76.07 L75.2,76.07 L75.39,75.88 L75.49,75.88 L75.59,75.78 L75.68,75.78 L76.07,75.39 L76.17,75.39 L76.86,74.71 L76.95,74.71 L77.15,74.51 L77.15,74.41 L77.93,73.63 L77.93,73.54 L78.22,73.24 L78.22,73.14 L78.42,72.95 L78.42,72.85 L78.52,72.75 L78.52,72.56 L78.61,72.46 L78.61,72.27 L78.52,72.17 L78.52,71.97 L78.12,71.58 L77.93,71.58 L77.83,71.48 L71.0,71.48 L70.9,71.39 L70.8,71.39 L70.61,71.19 L70.51,71.19 L70.02,70.7 L70.02,70.61 L69.73,70.31 L69.73,70.21 L69.53,70.02 L69.53,69.92 L69.34,69.73 L69.34,69.63 L69.24,69.53 L69.24,69.43 L69.14,69.34 L69.14,69.24 L69.04,69.14 L69.04,69.04 L68.95,68.95 L68.95,68.85 L68.85,68.75 L68.85,68.65 L68.75,68.55 L68.75,68.46 L68.65,68.36 L68.65,68.26 L68.55,68.16 L68.55,67.97 L68.46,67.87 L68.46,67.77 L68.36,67.68 L68.36,67.48 L68.26,67.38 L68.26,67.19 L68.16,67.09 L68.16,66.7 L68.07,66.6 L68.07,65.53 L68.16,65.43 L68.16,65.14 L68.26,65.04 L68.26,64.84 L68.36,64.75 L68.36,64.55 L68.46,64.45 L68.46,64.36 L68.55,64.26 L68.55,64.06 L68.65,63.96 L68.65,63.87 L68.75,63.77 L68.75,63.67 L68.85,63.57 L68.85,63.38 L68.95,63.28 L68.95,63.18 L69.04,63.09 L69.04,62.99 L69.24,62.79 L69.24,62.7 L69.34,62.6 L69.34,62.5 L69.43,62.4 L69.43,62.3 L69.63,62.11 L69.63,62.01 L69.82,61.82 L69.82,61.72 L70.12,61.43 L70.12,61.33 L70.7,60.74 L70.8,60.74 L70.9,60.64 L71.0,60.64 L71.09,60.55 L78.12,60.55 L78.61,60.06 L78.61,59.57 L78.52,59.47 L78.52,59.38 L78.42,59.28 L78.42,59.18 L78.22,58.98 L78.22,58.89 L78.03,58.69 L78.03,58.59 L77.73,58.3 L77.73,58.2 L77.34,57.81 L77.34,57.71 L76.27,56.64 L76.17,56.64 L75.88,56.35 L75.78,56.35 L75.49,56.05 L75.39,56.05 L75.2,55.86 L75.1,55.86 L75.0,55.76 L74.9,55.76 L74.71,55.57 L74.61,55.57 L74.51,55.47 L74.41,55.47 L74.32,55.37 L74.22,55.37 L74.12,55.27 L74.02,55.27 L73.93,55.18 L73.73,55.18 L73.63,55.08 L73.54,55.08 L73.44,54.98 L73.24,54.98 L73.14,54.88 L72.95,54.88 L72.85,54.79 L72.56,54.79 L72.46,54.69 L72.17,54.69 L72.07,54.59 L71.68,54.59 L71.58,54.49 L70.61,54.49 L70.51,54.39 Z" fill="black" /><path d="M 37.11,18.55 L37.01,18.65 L36.82,18.65 L36.72,18.75 L36.62,18.75 L35.94,19.43 L35.94,19.53 L35.74,19.73 L35.74,19.82 L35.64,19.92 L35.64,20.02 L35.55,20.12 L35.55,20.21 L35.45,20.31 L35.45,20.51 L35.35,20.61 L35.35,20.7 L35.25,20.8 L35.25,21.0 L35.16,21.09 L35.16,21.29 L35.06,21.39 L35.06,21.58 L34.96,21.68 L34.96,21.97 L34.86,22.07 L34.86,22.36 L34.77,22.46 L34.77,22.75 L34.67,22.85 L34.67,23.24 L34.57,23.34 L34.57,23.83 L34.47,23.93 L34.47,24.41 L34.38,24.51 L34.38,25.1 L34.28,25.2 L34.28,25.98 L34.18,26.07 L34.18,26.95 L34.08,27.05 L34.08,28.22 L33.98,28.32 L33.98,30.27 L33.89,30.37 L33.89,32.81 L33.79,32.91 L33.79,33.01 L33.69,33.11 L33.69,33.2 L33.5,33.4 L33.5,33.5 L33.4,33.59 L33.4,33.69 L33.2,33.89 L33.2,33.98 L33.11,34.08 L33.11,34.18 L33.01,34.28 L33.01,34.38 L32.91,34.47 L32.91,34.57 L32.81,34.67 L32.81,34.77 L32.71,34.86 L32.71,34.96 L32.62,35.06 L32.62,35.16 L32.52,35.25 L32.52,35.35 L32.42,35.45 L32.42,35.55 L32.32,35.64 L32.32,35.74 L32.23,35.84 L32.23,36.04 L32.13,36.13 L32.13,36.23 L32.03,36.33 L32.03,36.43 L31.93,36.52 L31.93,36.72 L31.84,36.82 L31.84,37.01 L31.74,37.11 L31.74,37.21 L31.64,37.3 L31.64,37.5 L31.54,37.6 L31.54,37.79 L31.45,37.89 L31.45,38.09 L31.35,38.18 L31.35,38.48 L31.25,38.57 L31.25,38.77 L31.15,38.87 L31.15,39.16 L31.05,39.26 L31.05,39.55 L30.96,39.65 L30.96,40.04 L30.86,40.14 L30.86,40.62 L30.76,40.72 L30.76,41.6 L30.66,41.7 L30.66,42.97 L30.76,43.07 L30.76,43.95 L30.86,44.04 L30.86,44.43 L30.96,44.53 L30.96,44.82 L31.05,44.92 L31.05,45.21 L31.15,45.31 L31.15,45.51 L31.25,45.61 L31.25,45.8 L31.35,45.9 L31.35,46.09 L31.45,46.19 L31.45,46.39 L31.54,46.48 L31.54,46.58 L31.64,46.68 L31.64,46.78 L31.74,46.88 L31.74,46.97 L31.84,47.07 L31.84,47.17 L31.93,47.27 L31.93,47.36 L32.03,47.46 L32.03,47.56 L32.13,47.66 L32.13,47.75 L32.32,47.95 L32.32,48.05 L32.52,48.24 L32.52,48.34 L32.71,48.54 L32.71,48.63 L33.11,49.02 L33.11,49.12 L33.89,49.9 L33.89,50.0 L34.38,50.49 L34.47,50.49 L35.16,51.17 L35.25,51.17 L35.74,51.66 L35.84,51.66 L36.23,52.05 L36.33,52.05 L36.62,52.34 L36.72,52.34 L37.01,52.64 L37.11,52.64 L37.4,52.93 L37.5,52.93 L37.79,53.22 L37.89,53.22 L38.18,53.52 L38.28,53.52 L38.57,53.81 L38.67,53.81 L38.96,54.1 L39.06,54.1 L39.55,54.59 L39.55,55.18 L39.45,55.27 L39.45,55.47 L39.36,55.57 L39.36,55.86 L39.26,55.96 L39.26,56.35 L39.16,56.45 L39.16,56.84 L39.06,56.93 L39.06,57.42 L38.96,57.52 L38.96,58.5 L38.87,58.59 L38.87,59.86 L39.06,60.06 L57.23,60.06 L57.32,59.96 L57.32,59.77 L57.42,59.67 L57.42,59.47 L57.52,59.38 L57.52,59.18 L57.62,59.08 L57.62,58.98 L57.71,58.89 L57.71,58.79 L57.81,58.69 L57.81,58.59 L58.01,58.4 L58.01,58.3 L58.11,58.2 L58.11,58.11 L58.3,57.91 L58.3,57.81 L58.5,57.62 L58.5,57.52 L58.69,57.32 L58.69,57.23 L58.98,56.93 L58.98,56.84 L59.28,56.54 L59.28,56.45 L59.77,55.96 L59.77,55.86 L62.21,53.42 L62.3,53.42 L63.09,52.64 L63.18,52.64 L63.87,51.95 L63.96,51.95 L64.75,51.17 L64.84,51.17 L66.8,49.22 L66.8,49.12 L67.09,48.83 L67.09,48.73 L67.38,48.44 L67.38,48.34 L67.58,48.14 L67.58,48.05 L67.77,47.85 L67.77,47.75 L67.97,47.56 L67.97,47.46 L68.07,47.36 L68.07,47.27 L68.16,47.17 L68.16,47.07 L68.26,46.97 L68.26,46.88 L68.36,46.78 L68.36,46.68 L68.46,46.58 L68.46,46.48 L68.55,46.39 L68.55,46.19 L68.65,46.09 L68.65,46.0 L68.75,45.9 L68.75,45.7 L68.85,45.61 L68.85,45.41 L68.95,45.31 L68.95,45.02 L69.04,44.92 L69.04,44.63 L69.14,44.53 L69.14,44.14 L69.24,44.04 L69.24,43.36 L69.34,43.26 L69.34,41.31 L69.24,41.21 L69.24,40.53 L69.14,40.43 L69.14,40.04 L69.04,39.94 L69.04,39.55 L68.95,39.45 L68.95,39.16 L68.85,39.06 L68.85,38.77 L68.75,38.67 L68.75,38.38 L68.65,38.28 L68.65,38.09 L68.55,37.99 L68.55,37.79 L68.46,37.7 L68.46,37.5 L68.36,37.4 L68.36,37.21 L68.26,37.11 L68.26,37.01 L68.16,36.91 L68.16,36.72 L68.07,36.62 L68.07,36.52 L67.97,36.43 L67.97,36.23 L67.87,36.13 L67.87,36.04 L67.77,35.94 L67.77,35.84 L67.68,35.74 L67.68,35.64 L67.58,35.55 L67.58,35.35 L67.48,35.25 L67.48,35.16 L67.29,34.96 L67.29,34.86 L67.19,34.77 L67.19,34.67 L67.09,34.57 L67.09,34.47 L66.99,34.38 L66.99,34.28 L66.89,34.18 L66.89,34.08 L66.7,33.89 L66.7,33.79 L66.6,33.69 L66.6,33.59 L66.41,33.4 L66.41,33.3 L66.21,33.11 L66.21,33.01 L66.02,32.81 L66.02,32.62 L65.92,32.52 L65.92,28.32 L65.82,28.22 L65.82,27.05 L65.72,26.95 L65.72,26.07 L65.62,25.98 L65.62,25.29 L65.53,25.2 L65.53,24.51 L65.43,24.41 L65.43,23.93 L65.33,23.83 L65.33,23.34 L65.23,23.24 L65.23,22.85 L65.14,22.75 L65.14,22.46 L65.04,22.36 L65.04,22.07 L64.94,21.97 L64.94,21.68 L64.84,21.58 L64.84,21.39 L64.75,21.29 L64.75,21.0 L64.65,20.9 L64.65,20.8 L64.55,20.7 L64.55,20.51 L64.45,20.41 L64.45,20.31 L64.36,20.21 L64.36,20.12 L64.26,20.02 L64.26,19.92 L64.16,19.82 L64.16,19.73 L63.96,19.53 L63.96,19.43 L63.28,18.75 L63.18,18.75 L63.09,18.65 L62.89,18.65 L62.79,18.55 L62.3,18.55 L62.21,18.65 L62.01,18.65 L61.91,18.75 L61.82,18.75 L61.72,18.85 L61.62,18.85 L61.52,18.95 L61.43,18.95 L61.13,19.24 L61.04,19.24 L60.64,19.63 L60.55,19.63 L59.77,20.41 L59.67,20.41 L57.13,22.95 L57.13,23.05 L56.05,24.12 L56.05,24.22 L55.18,25.1 L55.18,25.2 L54.39,25.98 L54.1,25.98 L54.0,25.88 L53.32,25.88 L53.22,25.78 L52.15,25.78 L52.05,25.68 L47.66,25.68 L47.56,25.78 L46.48,25.78 L46.39,25.88 L45.8,25.88 L45.7,25.98 L45.51,25.98 L44.73,25.2 L44.73,25.1 L43.95,24.32 L43.95,24.22 L42.77,23.05 L42.77,22.95 L39.94,20.12 L39.84,20.12 L39.16,19.43 L39.06,19.43 L38.77,19.14 L38.67,19.14 L38.38,18.85 L38.28,18.85 L38.18,18.75 L38.09,18.75 L37.99,18.65 L37.79,18.65 L37.7,18.55 Z" fill="black" /></svg>